# xmcd
#
# Track frame offsets:
#	150
#	20060
#	38328
#	63528
#	86774
#	118114
#	135826
#	147872
#	182908
#	201963
#	216213
#	225529
#	238178
#	248548
#	268474
#	287334
#	304815
#
# Disc length: 4342 seconds
#
# Revision: 0
# Processed by: cddbd v1.5.2PL0 Copyright (c) Steve Scherf et al.
# Submitted via: EasyCDDAExtractor 16.0.8.2
#
DISCID=f710f411
DTITLE=Συλλογικός δίσκος - Παραλογές 1
DYEAR=2008
DGENRE=Παραδοσιακή
TTITLE0=Σαμίου Δόμνα - Πραματευτής κατέβαινε [Χίος]
TTITLE1=Ζάμπας Μιχάλης - Τα τέσσερα, τα πέντε, τα εννιάδερφα [Ήπειρος]
TTITLE2=Ομάδα γυν. από το Μελί - Του νεκρού αδελφού [Μελί Ερυθραίας, Μ. Ασία]
TTITLE3=Δημούδης Βαγγέλης - Του νεκρού αδελφού [Αν. Ρωμυλία]
TTITLE4=Σαμίου Δόμνα - Κουράσιν εβουλήθηκε [Προποντίδα]
TTITLE5=Ομάδα γυν. από Νέα Παλάτια Ωρωπού - Το τραγούδι του Αη Γιώργη [Προποντ
TTITLE5=ίδα]
TTITLE6=Τζούμας Γιώργης - Της Άρτας το γεφύρι [Σκιάθος]
TTITLE7=Υφαντίδης Ηλίας - Σην γέφυραν, σην γέφυραν (Της Τρίχας το γεφύρι)[Πόντ
TTITLE7=ος]
TTITLE8=Ζαφειρούδης Χρήστος - Στην Πόλη ήμουν κι έμαθα [Παλιούρι, Θράκη]
TTITLE9=Παπαδοπούλου Κατερίνα - Το γυάλινο πηγάδι [Ύδρα]
TTITLE10=Τσουκάτος Σπύρος - Γιώργη βαράν τα σήμαντρα (Του κριματισμένου)[Πελοπ
TTITLE10=όννησος]
TTITLE11=Βάγια μπάμπω - Μιά Πασχαλιά, μιά Κυριακή (Του κριματισμένου)[Καρωτή, 
TTITLE11=Θράκη]
TTITLE12=Δοκίδου Βασιλική - Μιά μάνα έχει ένα γιό (Η κακιά μάνα)[Νέα Βύσσα, Θρ
TTITLE12=άκη]
TTITLE13=Δημούδης Βαγγέλης - Πέρασα καλημέρισα [Αν. ρωμυλία]
TTITLE14=Καρούνης Ζαχαρίας - Μηλίτσα πού 'σαι στο γκρεμό [Κωνσταντινούπολη]
TTITLE15=Ομάδα γυν. από Νέα Παλάτια Ωρωπού - Τ' Αη Γιωργιού τη βραδινή (Βασιλο
TTITLE15=πούλα γιος ρήγα)[Προποντίδα]
TTITLE16=Σαμίου Δόμνα-χορωδία - Μιά κόρη από την Εύριπου (Κόρη ταξιδεύτρα)
EXTD=
EXTT0=
EXTT1=
EXTT2=
EXTT3=
EXTT4=
EXTT5=
EXTT6=
EXTT7=
EXTT8=
EXTT9=
EXTT10=
EXTT11=
EXTT12=
EXTT13=
EXTT14=
EXTT15=
EXTT16=
PLAYORDER=
